<svg width="1085" height="515" xmlns="http://www.w3.org/2000/svg" xmlns:xlink="http://www.w3.org/1999/xlink" overflow="hidden"><defs><clipPath id="clip0"><rect x="128" y="91" width="1085" height="515"/></clipPath></defs><g clip-path="url(#clip0)" transform="translate(-128 -91)"><path d="M262.5 178.668C262.5 131.631 300.631 93.5001 347.668 93.5001L1029.33 93.5001C1076.37 93.5001 1114.5 131.631 1114.5 178.668L1114.5 519.332C1114.5 566.369 1076.37 604.5 1029.33 604.5L347.668 604.5C300.631 604.5 262.5 566.369 262.5 519.332Z" stroke="#003865" stroke-width="3.33333" stroke-miterlimit="8" fill="#FFFFFF" fill-rule="evenodd"/><text fill="#3F4444" font-family="Consolas,Consolas_MSFontService,sans-serif" font-weight="400" font-size="24" transform="translate(635.333 143)">Subgraph</text><path d="M393.5 251.5 475.544 261.1" stroke="#899292" stroke-width="3.33333" stroke-miterlimit="8" stroke-dasharray="10 3.33333" fill="none" fill-rule="evenodd"/><path d="M393.5 251.5C414.011 251.5 434.522 305.944 434.522 360.389 434.522 414.833 455.033 469.278 475.544 469.278" stroke="#899292" stroke-width="3.33333" stroke-miterlimit="8" stroke-dasharray="10 3.33333" fill="none" fill-rule="evenodd"/><path d="M0.646074-1.53635 108.164 43.6779 106.872 46.7506-0.646074 1.53635ZM107.92 39.9591 115.2 48.4446 104.044 49.1772Z" fill="#3F4444" transform="matrix(1 0 0 -1 358.5 355.945)"/><path d="M359.217 458.996 466.896 510.342 465.461 513.351 357.783 462.004ZM466.826 506.616 473.7 515.433 462.522 515.642Z" fill="#3F4444"/><path d="M661.598 305.836 665.922 306.091 670.269 306.739 674.553 307.843 678.725 309.342 686.564 313.326 693.592 318.484 699.585 324.541 702.074 327.947 704.222 331.462 705.921 335.122 707.235 338.866 708.03 342.711 708.288 346.512 708.538 350.2 708.507 349.975 709.257 353.6 709.198 353.386 710.448 356.948 710.387 356.798 712.012 360.298 711.922 360.131 713.985 363.506 713.908 363.392 716.283 366.642 716.129 366.459 721.879 372.334 721.674 372.156 728.486 377.156 728.255 377.014 735.88 380.889 735.689 380.807 739.689 382.244 739.463 382.181 743.758 383.071 743.082 386.335 738.672 385.421 734.463 383.908 726.624 379.924 719.592 374.763 713.663 368.705 711.176 365.303 709.028 361.788 707.329 358.128 706.016 354.384 705.22 350.539 704.962 346.738 704.712 343.05 704.743 343.275 703.993 339.65 704.052 339.864 702.802 336.302 702.863 336.452 701.238 332.952 701.328 333.119 699.265 329.744 699.342 329.858 696.967 326.608 697.128 326.797 691.315 320.922 691.514 321.094 684.701 316.094 684.932 316.236 677.307 312.361 677.499 312.444 673.499 311.006 673.647 311.052 669.522 309.989 669.692 310.023 665.504 309.398 665.652 309.414 661.402 309.164ZM742.395 379.533 751.688 385.75 741.138 389.453Z" fill="#3F4444"/><path d="M0.09787-1.66379 4.42229-1.40941 8.75749-0.762368 13.042 0.27631 17.2141 1.77566 25.0505 5.62962 32.0851 10.728 38.071 16.714 40.5613 19.9908 42.7157 23.4507 44.4169 27.0495 45.7326 30.7335 46.5295 34.5189 46.7876 38.1958 47.0376 41.7583 47.0059 41.5317 47.7559 45.0942 47.6977 44.8857 48.9477 48.4482 48.8767 48.277 50.5017 51.652 50.4148 51.4941 52.4773 54.8066 52.399 54.6917 54.774 57.8792 54.6224 57.7029 60.3724 63.5154 60.1574 63.3321 66.9699 68.2071 66.7355 68.0669 74.3605 71.8169 74.1887 71.744 78.1887 73.1815 77.9471 73.1148 82.2401 73.9604 81.5959 77.2309 77.1796 76.361 72.9734 74.8493 65.1415 70.9976 58.1023 65.9604 52.1707 59.9643 49.6845 56.6275 47.5375 53.1793 45.8331 49.6394 44.5164 45.887 43.7205 42.1061 43.4624 38.4292 43.2124 34.8667 43.2441 35.0933 42.4941 31.5308 42.5554 31.7481 41.3054 28.2481 41.3682 28.3998 39.7432 24.9623 39.8352 25.1309 37.7727 21.8184 37.8606 21.946 35.4856 18.821 35.634 18.991 29.8215 13.1785 30.0219 13.3495 23.2094 8.412 23.452 8.55808 15.827 4.80808 15.9988 4.88096 11.9988 3.44346 12.1698 3.49475 8.04483 2.49475 8.19147 2.52341 4.00397 1.89841 4.15213 1.91379-0.09787 1.66379ZM80.8817 70.4281 90.1875 76.625 79.6465 80.3515Z" fill="#3F4444" transform="matrix(1 0 0 -1 661.5 516.122)"/><path d="M938.882 437.878 1011.21 454.902 1010.45 458.147 938.118 441.122ZM1010.36 451.275 1018.94 458.434 1008.07 461.01Z" fill="#3F4444"/><path d="M166.5 436.667C166.5 429.947 171.947 424.5 178.667 424.5L346.333 424.5C353.053 424.5 358.5 429.947 358.5 436.667L358.5 485.333C358.5 492.053 353.053 497.5 346.333 497.5L178.667 497.5C171.947 497.5 166.5 492.053 166.5 485.333Z" stroke="#C4D600" stroke-width="3.33333" stroke-miterlimit="8" fill="#FFFFFF" fill-rule="evenodd"/><text fill="#3F4444" font-family="Consolas,Consolas_MSFontService,sans-serif" font-weight="400" font-size="24" transform="translate(209.022 467)">Input[T]</text><path d="M1018.5 433.667C1018.5 426.947 1023.95 421.5 1030.67 421.5L1198.33 421.5C1205.05 421.5 1210.5 426.947 1210.5 433.667L1210.5 482.333C1210.5 489.053 1205.05 494.5 1198.33 494.5L1030.67 494.5C1023.95 494.5 1018.5 489.053 1018.5 482.333Z" stroke="#D0006F" stroke-width="3.33333" stroke-miterlimit="8" fill="#FFFFFF" fill-rule="evenodd"/><text fill="#3F4444" font-family="Consolas,Consolas_MSFontService,sans-serif" font-weight="400" font-size="24" transform="translate(1055.06 465)">Output[T]</text><path d="M130.5 226.667C130.5 219.947 135.947 214.5 142.667 214.5L381.333 214.5C388.053 214.5 393.5 219.947 393.5 226.667L393.5 275.333C393.5 282.053 388.053 287.5 381.333 287.5L142.667 287.5C135.947 287.5 130.5 282.053 130.5 275.333Z" stroke="#F0AB00" stroke-width="3.33333" stroke-miterlimit="8" fill="#FFFFFF" fill-rule="evenodd"/><text fill="#3F4444" font-family="Consolas,Consolas_MSFontService,sans-serif" font-weight="400" font-size="24" transform="translate(149.772 258)">MultiParameter<tspan font-size="24" x="184.333" y="0">[T]</tspan></text><path d="M501.5 443.5C501.5 431.35 511.35 421.5 523.5 421.5L611.5 421.5C623.65 421.5 633.5 431.35 633.5 443.5L633.5 531.5C633.5 543.65 623.65 553.5 611.5 553.5L523.5 553.5C511.35 553.5 501.5 543.65 501.5 531.5Z" stroke="#003865" stroke-width="3.33333" stroke-miterlimit="8" fill="#FFFFFF" fill-rule="evenodd"/><text fill="#3F4444" font-family="Consolas,Consolas_MSFontService,sans-serif" font-weight="400" font-size="24" transform="translate(560.172 452)">B</text><path d="M473 506.333C473 503.94 474.94 502 477.333 502L524.667 502C527.06 502 529 503.94 529 506.333L529 523.667C529 526.06 527.06 528 524.667 528L477.333 528C474.94 528 473 526.06 473 523.667Z" fill="#C4D600" fill-rule="evenodd"/><path d="M475 460.167C475 457.866 476.866 456 479.167 456L526.833 456C529.134 456 531 457.866 531 460.167L531 476.833C531 479.134 529.134 481 526.833 481L479.167 481C476.866 481 475 479.134 475 476.833Z" fill="#F0AB00" fill-rule="evenodd"/><path d="M605 506.333C605 503.94 606.94 502 609.333 502L656.667 502C659.06 502 661 503.94 661 506.333L661 523.667C661 526.06 659.06 528 656.667 528L609.333 528C606.94 528 605 526.06 605 523.667Z" fill="#D0006F" fill-rule="evenodd"/><path d="M501.5 235.5C501.5 223.35 511.35 213.5 523.5 213.5L611.5 213.5C623.65 213.5 633.5 223.35 633.5 235.5L633.5 323.5C633.5 335.65 623.65 345.5 611.5 345.5L523.5 345.5C511.35 345.5 501.5 335.65 501.5 323.5Z" stroke="#003865" stroke-width="3.33333" stroke-miterlimit="8" fill="#FFFFFF" fill-rule="evenodd"/><text fill="#3F4444" font-family="Consolas,Consolas_MSFontService,sans-serif" font-weight="400" font-size="24" transform="translate(560.172 244)">A</text><path d="M473 298.333C473 295.94 474.94 294 477.333 294L524.667 294C527.06 294 529 295.94 529 298.333L529 315.667C529 318.06 527.06 320 524.667 320L477.333 320C474.94 320 473 318.06 473 315.667Z" fill="#C4D600" fill-rule="evenodd"/><path d="M475 251.333C475 248.94 476.94 247 479.333 247L526.667 247C529.06 247 531 248.94 531 251.333L531 268.667C531 271.06 529.06 273 526.667 273L479.333 273C476.94 273 475 271.06 475 268.667Z" fill="#F0AB00" fill-rule="evenodd"/><path d="M605 298.333C605 295.94 606.94 294 609.333 294L656.667 294C659.06 294 661 295.94 661 298.333L661 315.667C661 318.06 659.06 320 656.667 320L609.333 320C606.94 320 605 318.06 605 315.667Z" fill="#D0006F" fill-rule="evenodd"/><path d="M166.5 331.667C166.5 324.947 171.947 319.5 178.667 319.5L346.333 319.5C353.053 319.5 358.5 324.947 358.5 331.667L358.5 380.333C358.5 387.053 353.053 392.5 346.333 392.5L178.667 392.5C171.947 392.5 166.5 387.053 166.5 380.333Z" stroke="#C4D600" stroke-width="3.33333" stroke-miterlimit="8" fill="#FFFFFF" fill-rule="evenodd"/><text fill="#3F4444" font-family="Consolas,Consolas_MSFontService,sans-serif" font-weight="400" font-size="24" transform="translate(209.022 363)">Input[T]</text><path d="M779.5 367.334C779.5 355.275 789.275 345.5 801.334 345.5L889.666 345.5C901.725 345.5 911.5 355.275 911.5 367.334L911.5 454.666C911.5 466.725 901.725 476.5 889.666 476.5L801.334 476.5C789.275 476.5 779.5 466.725 779.5 454.666Z" stroke="#003865" stroke-width="3.33333" stroke-miterlimit="8" fill="#FFFFFF" fill-rule="evenodd"/><text fill="#3F4444" font-family="Consolas,Consolas_MSFontService,sans-serif" font-weight="400" font-size="24" transform="translate(838.038 376)">C</text><path d="M751 430.167C751 427.866 752.866 426 755.167 426L802.833 426C805.134 426 807 427.866 807 430.167L807 446.833C807 449.134 805.134 451 802.833 451L755.167 451C752.866 451 751 449.134 751 446.833Z" fill="#C4D600" fill-rule="evenodd"/><path d="M883 430.167C883 427.866 884.866 426 887.167 426L933.833 426C936.134 426 938 427.866 938 430.167L938 446.833C938 449.134 936.134 451 933.833 451L887.167 451C884.866 451 883 449.134 883 446.833Z" fill="#D0006F" fill-rule="evenodd"/><path d="M751 376.333C751 373.94 752.94 372 755.333 372L802.667 372C805.06 372 807 373.94 807 376.333L807 393.667C807 396.06 805.06 398 802.667 398L755.333 398C752.94 398 751 396.06 751 393.667Z" fill="#C4D600" fill-rule="evenodd"/></g></svg>