<svg width="1253" height="630" xmlns="http://www.w3.org/2000/svg" xmlns:xlink="http://www.w3.org/1999/xlink" overflow="hidden"><defs><clipPath id="clip0"><rect x="12" y="9" width="1253" height="630"/></clipPath></defs><g clip-path="url(#clip0)" transform="translate(-12 -9)"><rect x="520.5" y="45.5001" width="240" height="69" stroke="#3F4444" stroke-width="1.33333" stroke-miterlimit="8" fill="#FFFFFF"/><text fill="#3F4444" font-family="Consolas,Consolas_MSFontService,sans-serif" font-weight="400" font-size="11" transform="translate(529.244 59)">name<tspan font-size="11" x="23.3334" y="0">: </tspan><tspan font-size="11" x="35" y="0">str</tspan><tspan font-size="11" x="0" y="14">p</tspan><tspan font-size="11" x="5.83337" y="14">arent:</tspan><tspan font-size="11" x="46.6667" y="14">Component</tspan><tspan font-size="11" x="0" y="29">d</tspan><tspan font-size="11" x="5.83337" y="29">atatype: Any</tspan><tspan font-size="11" x="0" y="43">p</tspan><tspan font-size="11" x="5.83337" y="43">ath: tuple[str, …]</tspan></text><rect x="520.5" y="15.5001" width="240" height="30" stroke="#3F4444" stroke-width="1.33333" stroke-miterlimit="8" fill="#E1F6F9"/><text fill="#3F4444" font-family="Consolas,Consolas_MSFontService,sans-serif" font-weight="400" font-size="20" transform="translate(574 34)">Interface[T]</text><rect x="520.5" y="114.5" width="240" height="44" stroke="#3F4444" stroke-width="1.33333" stroke-miterlimit="8" fill="#FFFFFF"/><text fill="#3F4444" font-family="Consolas,Consolas_MSFontService,sans-serif" font-weight="400" font-size="11" transform="translate(529.244 130)">build(name: str, parent: Component)<tspan font-size="11" x="0" y="14">check()</tspan></text><path d="M2-9.01408e-07 2.0001 222.94-1.9999 222.94-2 9.01408e-07ZM6.0001 220.94 0.000104987 232.94-5.9999 220.94Z" fill="#899292" transform="matrix(1 0 0 -1 997 474.94)"/><path d="M0 0-2.35423 0-2.35423 106.051 576.978 106.051" stroke="#899292" stroke-width="4" stroke-miterlimit="8" fill="none" fill-rule="evenodd" transform="matrix(1 0 0 -1 420 475.051)"/><rect x="163.5" y="112.5" width="241" height="65" stroke="#3F4444" stroke-width="1.33333" stroke-miterlimit="8" fill="#FFFFFF"/><text fill="#3F4444" font-family="Consolas,Consolas_MSFontService,sans-serif" font-weight="400" font-size="11" transform="translate(172.622 131)">d<tspan font-size="11" x="5.83334" y="0">efault: T | None</tspan><tspan font-size="11" x="0" y="15">i</tspan><tspan font-size="11" x="5.83334" y="15">s_set</tspan><tspan font-size="11" x="35" y="15">:</tspan><tspan font-size="11" x="46.6667" y="15">bool</tspan><tspan font-size="11" x="0" y="31">v</tspan><tspan font-size="11" x="5.83334" y="31">alue: T</tspan></text><rect x="163.5" y="83.5001" width="241" height="29" stroke="#3F4444" stroke-width="1.33333" stroke-miterlimit="8" fill="#FAFFC4"/><text fill="#3F4444" font-family="Consolas,Consolas_MSFontService,sans-serif" font-weight="400" font-size="20" transform="translate(217.378 102)">Parameter[T]</text><rect x="163.5" y="177.5" width="241" height="37" stroke="#3F4444" stroke-width="1.33333" stroke-miterlimit="8" fill="#FFFFFF"/><text fill="#3F4444" font-family="Consolas,Consolas_MSFontService,sans-serif" font-weight="400" font-size="11" transform="translate(172.622 197)">s<tspan font-size="11" x="5.83334" y="0">et(value: T)</tspan></text><rect x="14.5001" y="301.5" width="240" height="42" stroke="#3F4444" stroke-width="1.33333" stroke-miterlimit="8" fill="#FFFFFF"/><text fill="#3F4444" font-family="Consolas,Consolas_MSFontService,sans-serif" font-weight="400" font-size="11" transform="translate(23.1111 324)">filepath: Path</text><rect x="14.5001" y="271.5" width="240" height="30" stroke="#3F4444" stroke-width="1.33333" stroke-miterlimit="8" fill="#FAFFC4"/><text fill="#3F4444" font-family="Consolas,Consolas_MSFontService,sans-serif" font-weight="400" font-size="20" transform="translate(62.3666 290)">FileParameter</text><rect x="299.5" y="300.5" width="241" height="43" stroke="#3F4444" stroke-width="1.33333" stroke-miterlimit="8" fill="#FFFFFF"/><text fill="#3F4444" font-family="Consolas,Consolas_MSFontService,sans-serif" font-weight="400" font-size="11" transform="translate(308.889 323)">p<tspan font-size="11" x="5.83331" y="0">arameters: list[Parameter[T]]</tspan></text><rect x="299.5" y="271.5" width="241" height="29" stroke="#3F4444" stroke-width="1.33333" stroke-miterlimit="8" fill="#FAFFC4"/><text fill="#3F4444" font-family="Consolas,Consolas_MSFontService,sans-serif" font-weight="400" font-size="20" transform="translate(326.144 290)">MultiParameter[T]</text><rect x="876.5" y="112.5" width="241" height="86" stroke="#3F4444" stroke-width="1.33333" stroke-miterlimit="8" fill="#FFFFFF"/><text fill="#3F4444" font-family="Consolas,Consolas_MSFontService,sans-serif" font-weight="400" font-size="11" transform="translate(885.867 129)">t<tspan font-size="11" x="5.83331" y="0">imeout: float</tspan><tspan font-size="11" x="0" y="18">o</tspan><tspan font-size="11" x="5.83331" y="18">ptional:</tspan><tspan font-size="11" x="58.3333" y="18">bool</tspan><tspan font-size="11" x="0" y="37">c</tspan><tspan font-size="11" x="5.83331" y="37">hannel: Channel[T] | None</tspan><tspan font-size="11" x="0" y="55">i</tspan><tspan font-size="11" x="5.83331" y="55">s_connected</tspan><tspan font-size="11" x="70" y="55">: bool</tspan></text><rect x="876.5" y="83.5001" width="241" height="29" stroke="#3F4444" stroke-width="1.33333" stroke-miterlimit="8" fill="#E1F6F9"/><text fill="#3F4444" font-family="Consolas,Consolas_MSFontService,sans-serif" font-weight="400" font-size="20" transform="translate(958.122 102)">Port[T]</text><rect x="876.5" y="198.5" width="241" height="44" stroke="#3F4444" stroke-width="1.33333" stroke-miterlimit="8" fill="#FFFFFF"/><text fill="#3F4444" font-family="Consolas,Consolas_MSFontService,sans-serif" font-weight="400" font-size="11" transform="translate(885.867 214)">s<tspan font-size="11" x="5.83331" y="0">et_channel</tspan><tspan font-size="11" x="64.1666" y="0">(channel: Channel[T])</tspan><tspan font-size="11" x="0" y="14">c</tspan><tspan font-size="11" x="5.83331" y="14">lose(</tspan><tspan font-size="11" x="35" y="14">)</tspan></text><rect x="876.5" y="505.5" width="241" height="42" stroke="#3F4444" stroke-width="1.33333" stroke-miterlimit="8" fill="#FFFFFF"/><text fill="#3F4444" font-family="Consolas,Consolas_MSFontService,sans-serif" font-weight="400" font-size="11" transform="translate(885.867 518)">n<tspan font-size="11" x="5.83331" y="0">_ports</tspan>: int | None<tspan font-size="11" x="0" y="18">_ports: list[Port[T]]</tspan></text><rect x="876.5" y="475.5" width="241" height="30" stroke="#3F4444" stroke-width="1.33333" stroke-miterlimit="8" fill="#E1F6F9"/><text fill="#3F4444" font-family="Consolas,Consolas_MSFontService,sans-serif" font-weight="400" font-size="20" transform="translate(930.622 494)">MultiPort<tspan font-size="20" x="99.0001" y="0">[T]</tspan></text><rect x="728.5" y="601.5" width="241" height="30" stroke="#3F4444" stroke-width="1.33333" stroke-miterlimit="8" fill="#FAFFC4"/><text fill="#3F4444" font-family="Consolas,Consolas_MSFontService,sans-serif" font-weight="400" font-size="20" transform="translate(776.678 620)">MultiInput[T]</text><rect x="1023.5" y="601.5" width="241" height="30" stroke="#3F4444" stroke-width="1.33333" stroke-miterlimit="8" fill="#FAFFC4"/><text fill="#3F4444" font-family="Consolas,Consolas_MSFontService,sans-serif" font-weight="400" font-size="20" transform="translate(1066.47 620)">MultiOutput[T]</text><rect x="299.5" y="505.5" width="241" height="31" stroke="#3F4444" stroke-width="1.33333" stroke-miterlimit="8" fill="#FFFFFF"/><text fill="#3F4444" font-family="Consolas,Consolas_MSFontService,sans-serif" font-weight="400" font-size="11" transform="translate(308.889 522)">active: bool</text><rect x="299.5" y="475.5" width="241" height="30" stroke="#3F4444" stroke-width="1.33333" stroke-miterlimit="8" fill="#FAFFC4"/><text fill="#3F4444" font-family="Consolas,Consolas_MSFontService,sans-serif" font-weight="400" font-size="20" transform="translate(375.644 494)">Input[T]</text><rect x="299.5" y="536.5" width="241" height="99" stroke="#3F4444" stroke-width="1.33333" stroke-miterlimit="8" fill="#FFFFFF"/><text fill="#3F4444" font-family="Consolas,Consolas_MSFontService,sans-serif" font-weight="400" font-size="11" transform="translate(308.889 558)">d<tspan font-size="11" x="5.83331" y="0">ump() </tspan><tspan font-size="11" x="40.8333" y="0">-</tspan><tspan font-size="11" x="46.6667" y="0">&gt; list[T]</tspan><tspan font-size="11" x="0" y="14">p</tspan><tspan font-size="11" x="5.83331" y="14">reload(data: T)</tspan><tspan font-size="11" x="0" y="29">r</tspan><tspan font-size="11" x="5.83331" y="29">eady() </tspan><tspan font-size="11" x="46.6667" y="29">-</tspan><tspan font-size="11" x="52.5" y="29">&gt; bool</tspan><tspan font-size="11" x="0" y="43">r</tspan><tspan font-size="11" x="5.83331" y="43">eceive()</tspan><tspan font-size="11" x="58.3333" y="43">-</tspan><tspan font-size="11" x="64.1667" y="43">&gt;</tspan><tspan font-size="11" x="75.8333" y="43">T</tspan><tspan font-size="11" x="0" y="57">r</tspan><tspan font-size="11" x="5.83331" y="57">eceive_optional</tspan><tspan font-size="11" x="93.3333" y="57">() </tspan>-<tspan font-size="11" x="116.667" y="57">&gt; T | None</tspan></text><rect x="588.5" y="475.5" width="240" height="30" stroke="#3F4444" stroke-width="1.33333" stroke-miterlimit="8" fill="#FAFFC4"/><text fill="#3F4444" font-family="Consolas,Consolas_MSFontService,sans-serif" font-weight="400" font-size="20" transform="translate(658.633 494)">Output[T]</text><rect x="588.5" y="504.5" width="240" height="37" stroke="#3F4444" stroke-width="1.33333" stroke-miterlimit="8" fill="#FFFFFF"/><text fill="#3F4444" font-family="Consolas,Consolas_MSFontService,sans-serif" font-weight="400" font-size="11" transform="translate(597.378 523)">s<tspan font-size="11" x="5.83337" y="0">end(item: T)</tspan></text><path d="M849 602.333 849 578.333 1144.29 578.333 1144.29 601" stroke="#899292" stroke-width="4" stroke-miterlimit="8" fill="none" fill-rule="evenodd"/><path d="M135 272.333 135 248.333 420.778 248.333 420.778 271" stroke="#899292" stroke-width="4" stroke-miterlimit="8" fill="none" fill-rule="evenodd"/><path d="M0-2 59.9555-2 59.9555 65.3668 57.9555 63.3668 105.911 63.3668 105.911 67.3668 55.9555 67.3668 55.9555 0 57.9555 2 0 2ZM103.911 59.3668 115.911 65.3668 103.911 71.3668Z" fill="#899292" transform="matrix(1 0 0 -1 404 144.367)"/><path d="M0 0 0.000104987 106.051" stroke="#899292" stroke-width="4" stroke-miterlimit="8" fill="none" fill-rule="evenodd" transform="matrix(1 0 0 -1 708 475.051)"/><path d="M875.911 156.922 815.955 156.922 815.955 79 817.955 81 770 81 770 77 819.955 77 819.955 154.922 817.955 152.922 875.911 152.922ZM772 85 760 79 772 73Z" fill="#899292"/><path d="M2-6.99553e-06 2.00007 20.0154-1.99993 20.0154-2 6.99553e-06ZM6.00006 18.0154 0.000104987 30.0154-5.99994 18.0155Z" fill="#899292" transform="matrix(1 0 0 -1 997 577.015)"/><path d="M2-6.14366e-06 2.00007 24.1773-1.99993 24.1773-2 6.14366e-06ZM6.00007 22.1773 0.000104987 34.1773-5.99993 22.1773Z" fill="#899292" transform="matrix(1 0 0 -1 283 248.177)"/></g></svg>