<svg width="582" height="631" xmlns="http://www.w3.org/2000/svg" xmlns:xlink="http://www.w3.org/1999/xlink" overflow="hidden"><defs><clipPath id="clip0"><rect x="330" y="43" width="582" height="631"/></clipPath></defs><g clip-path="url(#clip0)" transform="translate(-330 -43)"><rect x="668.5" y="79.5001" width="241" height="113" stroke="#3F4444" stroke-width="1.33333" stroke-miterlimit="8" fill="#FFFFFF"/><text fill="#3F4444" font-family="Consolas,Consolas_MSFontService,sans-serif" font-weight="400" font-size="11" transform="translate(677.689 103)">name: str<tspan font-size="11" x="0" y="15">p</tspan><tspan font-size="11" x="5.83331" y="15">arent:</tspan><tspan font-size="11" x="46.6667" y="15">Component</tspan><tspan font-size="11" x="0" y="29">i</tspan><tspan font-size="11" x="5.83331" y="29">nputs:</tspan><tspan font-size="11" x="46.6667" y="29">dict</tspan><tspan font-size="11" x="70" y="29">[str, Input[Any]]</tspan><tspan font-size="11" x="0" y="43">o</tspan><tspan font-size="11" x="5.83331" y="43">utputs: </tspan><tspan font-size="11" x="52.5" y="43">dict</tspan><tspan font-size="11" x="75.8333" y="43">[str, Output[Any]]</tspan><tspan font-size="11" x="0" y="58">p</tspan><tspan font-size="11" x="5.83331" y="58">arameters:</tspan><tspan font-size="11" x="70" y="58">dict</tspan><tspan font-size="11" x="93.3333" y="58">[str,</tspan><tspan font-size="11" x="128.333" y="58">Parameter[Any]]</tspan><tspan font-size="11" x="0" y="72">s</tspan><tspan font-size="11" x="5.83331" y="72">tatus:</tspan><tspan font-size="11" x="46.6667" y="72">Statu</tspan><tspan font-size="11" x="75.8333" y="72">s</tspan></text><rect x="668.5" y="49.5001" width="241" height="30" stroke="#3F4444" stroke-width="1.33333" stroke-miterlimit="8" fill="#D6EDFF"/><text fill="#3F4444" font-family="Consolas,Consolas_MSFontService,sans-serif" font-weight="400" font-size="20" transform="translate(738.944 68)">Component</text><rect x="331.5" y="79.5001" width="241" height="56" stroke="#3F4444" stroke-width="1.33333" stroke-miterlimit="8" fill="#FFFFFF"/><text fill="#3F4444" font-family="Consolas,Consolas_MSFontService,sans-serif" font-weight="400" font-size="11" transform="translate(340.978 103)">name: str<tspan font-size="11" x="0" y="15">s</tspan><tspan font-size="11" x="5.83334" y="15">ignal:</tspan><tspan font-size="11" x="46.6667" y="15">multiprocessing.Even</tspan><tspan font-size="11" x="163.333" y="15">t</tspan></text><rect x="331.5" y="49.5001" width="241" height="30" stroke="#3F4444" stroke-width="1.33333" stroke-miterlimit="8" fill="#FFEFC9"/><text fill="#3F4444" font-family="Consolas,Consolas_MSFontService,sans-serif" font-weight="400" font-size="20" transform="translate(407.733 68)">Runnable</text><rect x="331.5" y="135.5" width="241" height="57" stroke="#3F4444" stroke-width="1.33333" stroke-miterlimit="8" fill="#FFFFFF"/><text fill="#3F4444" font-family="Consolas,Consolas_MSFontService,sans-serif" font-weight="400" font-size="11" transform="translate(340.978 159)">e<tspan font-size="11" x="5.83334" y="0">xecute()</tspan><tspan font-size="11" x="0" y="15">c</tspan><tspan font-size="11" x="5.83334" y="15">leanup(</tspan><tspan font-size="11" x="46.6667" y="15">)</tspan></text><rect x="331.5" y="386.5" width="241" height="57" stroke="#3F4444" stroke-width="1.33333" stroke-miterlimit="8" fill="#FFFFFF"/><text fill="#3F4444" font-family="Consolas,Consolas_MSFontService,sans-serif" font-weight="400" font-size="11" transform="translate(340.978 408)">m<tspan font-size="11" x="5.83334" y="0">ax_loops</tspan><tspan font-size="11" x="52.5" y="0">:</tspan><tspan font-size="11" x="64.1667" y="0">int</tspan><tspan font-size="11" x="0" y="13">c</tspan><tspan font-size="11" x="5.83334" y="13">pus</tspan>: Resources<tspan font-size="11" x="0" y="26">g</tspan><tspan font-size="11" x="5.83334" y="26">pus</tspan>:<tspan font-size="11" x="35" y="26">Resources</tspan></text><rect x="331.5" y="357.5" width="241" height="29" stroke="#3F4444" stroke-width="1.33333" stroke-miterlimit="8" fill="#FAFFC4"/><text fill="#3F4444" font-family="Consolas,Consolas_MSFontService,sans-serif" font-weight="400" font-size="20" transform="translate(429.733 376)">Node</text><rect x="331.5" y="443.5" width="241" height="99" stroke="#3F4444" stroke-width="1.33333" stroke-miterlimit="8" fill="#FFFFFF"/><text fill="#3F4444" font-family="Consolas,Consolas_MSFontService,sans-serif" font-weight="400" font-size="11" transform="translate(340.978 467)">build()<tspan font-size="11" x="0" y="15">c</tspan><tspan font-size="11" x="5.83334" y="15">heck()</tspan><tspan font-size="11" x="0" y="29">l</tspan><tspan font-size="11" x="5.83334" y="29">oop(step: float)</tspan><tspan font-size="11" x="0" y="43">s</tspan><tspan font-size="11" x="5.83334" y="43">hutdown()</tspan><tspan font-size="11" x="0" y="58">run()</tspan></text><rect x="668.5" y="298.5" width="241" height="57" stroke="#3F4444" stroke-width="1.33333" stroke-miterlimit="8" fill="#FFFFFF"/><text fill="#3F4444" font-family="Consolas,Consolas_MSFontService,sans-serif" font-weight="400" font-size="11" transform="translate(677.689 321)">n<tspan font-size="11" x="5.83331" y="0">odes: </tspan>dict<tspan font-size="11" x="64.1667" y="0">[str, Component]</tspan><tspan font-size="11" x="0" y="15">c</tspan><tspan font-size="11" x="5.83331" y="15">hannels:</tspan><tspan font-size="11" x="58.3333" y="15">dict</tspan><tspan font-size="11" x="81.6667" y="15">[Key, Channel[Any]]</tspan></text><rect x="668.5" y="268.5" width="241" height="30" stroke="#3F4444" stroke-width="1.33333" stroke-miterlimit="8" fill="#FAFFC4"/><text fill="#3F4444" font-family="Consolas,Consolas_MSFontService,sans-serif" font-weight="400" font-size="20" transform="translate(760.944 287)">Graph</text><rect x="668.5" y="355.5" width="241" height="99" stroke="#3F4444" stroke-width="1.33333" stroke-miterlimit="8" fill="#FFFFFF"/><text fill="#3F4444" font-family="Consolas,Consolas_MSFontService,sans-serif" font-weight="400" font-size="11" transform="translate(677.689 379)">a<tspan font-size="11" x="5.83331" y="0">dd(name: str, component: Component)</tspan><tspan font-size="11" x="0" y="15">c</tspan><tspan font-size="11" x="5.83331" y="15">onnect(sending:</tspan><tspan font-size="11" x="99.1667" y="15">Output[T],</tspan><tspan font-size="11" x="46.6667" y="29">receiving:</tspan><tspan font-size="11" x="110.833" y="29">Input[T])</tspan><tspan font-size="11" x="0" y="43">m</tspan><tspan font-size="11" x="5.83331" y="43">ap_port</tspan><tspan font-size="11" x="46.6667" y="43">(name:</tspan><tspan font-size="11" x="87.5" y="43">str,</tspan><tspan font-size="11" x="116.667" y="43">port:</tspan><tspan font-size="11" x="151.667" y="43">Port[Any])</tspan><tspan font-size="11" x="0" y="58">m</tspan><tspan font-size="11" x="5.83331" y="58">ap_parameters</tspan><tspan font-size="11" x="81.6667" y="58">(name: str, *parameters)</tspan></text><rect x="668.5" y="528.5" width="241" height="30" stroke="#3F4444" stroke-width="1.33333" stroke-miterlimit="8" fill="#FAFFC4"/><text fill="#3F4444" font-family="Consolas,Consolas_MSFontService,sans-serif" font-weight="400" font-size="20" transform="translate(744.444 547)">Workflow</text><rect x="668.5" y="558.5" width="241" height="115" stroke="#3F4444" stroke-width="1.33333" stroke-miterlimit="8" fill="#FFFFFF"/><text fill="#3F4444" font-family="Consolas,Consolas_MSFontService,sans-serif" font-weight="400" font-size="11" transform="translate(677.689 581)">f<tspan font-size="11" x="5.83331" y="0">rom_file</tspan><tspan font-size="11" x="52.5" y="0">(file: Path) </tspan><tspan font-size="11" x="128.333" y="0">-</tspan><tspan font-size="11" x="134.167" y="0">&gt; Workflow</tspan><tspan font-size="11" x="0" y="15">f</tspan><tspan font-size="11" x="5.83331" y="15">rom_checkpoin</tspan><tspan font-size="11" x="81.6667" y="15">t</tspan><tspan font-size="11" x="87.5" y="15">(file: Path) </tspan><tspan font-size="11" x="163.333" y="15">-</tspan><tspan font-size="11" x="169.167" y="15">&gt; Workflow</tspan><tspan font-size="11" x="0" y="29">t</tspan><tspan font-size="11" x="5.83331" y="29">o_file</tspan>(file:<tspan font-size="11" x="81.6667" y="29">Path)</tspan><tspan font-size="11" x="0" y="43">to_checkpoin</tspan>t<tspan font-size="11" x="75.8333" y="43">(file: Path)</tspan><tspan font-size="11" x="0" y="58">a</tspan><tspan font-size="11" x="5.83331" y="58">dd_arguments</tspan>(parser: ArgumentGroup<tspan font-size="11" x="204.167" y="58">)</tspan><tspan font-size="11" x="0" y="72">e</tspan><tspan font-size="11" x="5.83331" y="72">xecute(</tspan><tspan font-size="11" x="46.6667" y="72">)</tspan></text><path d="M790 202 790 268.089 786 268.089 786 202ZM782 204 788 192 794 204Z" fill="#899292"/><path d="M790 464 790 528.578 786 528.578 786 464ZM782 466 788 454 794 466Z" fill="#899292"/><path d="M454 202 454 233.422 450 233.422 450 202ZM446 204 452 192 458 204Z" fill="#899292"/><path d="M0 0 336.711 0 336.711 123.556" stroke="#899292" stroke-width="4" stroke-miterlimit="8" fill="none" fill-rule="evenodd" transform="matrix(-1 1.22465e-16 1.22465e-16 1 788.711 233)"/></g></svg>