<svg width="915" height="318" xmlns="http://www.w3.org/2000/svg" xmlns:xlink="http://www.w3.org/1999/xlink" overflow="hidden"><defs><clipPath id="clip0"><rect x="129" y="87" width="915" height="318"/></clipPath></defs><g clip-path="url(#clip0)" transform="translate(-129 -87)"><path d="M315.604 155.837 318.71 156.031 321.886 156.639 327.918 158.868 333.494 162.279 338.523 166.72 342.763 172.005 346.028 177.882 348.199 184.196 348.907 190.63 349.594 196.816 349.514 196.458 351.576 202.458 351.457 202.191 354.582 207.816 354.425 207.582 358.487 212.644 358.299 212.445 363.049 216.695 362.8 216.511 368.175 219.761 367.794 219.592 371.287 220.646 370.324 223.837 366.63 222.722 360.942 219.283 355.974 214.838 351.737 209.558 348.472 203.681 346.301 197.367 345.593 190.995 344.906 184.745 344.986 185.104 342.924 179.104 343.043 179.372 339.918 173.747 340.075 173.981 336.013 168.918 336.209 169.124 331.397 164.874 331.63 165.047 326.318 161.797 326.61 161.938 320.86 159.813 321.124 159.887 318.187 159.324 318.396 159.351 315.396 159.163ZM370.272 216.998 378.938 224.063 368.087 226.757Z" fill="#3F4444"/><path d="M566.502 274.833 621.841 274.91 621.836 278.244 566.498 278.167ZM620.179 271.575 630.172 276.589 620.165 281.575Z" fill="#3F4444"/><path d="M5.45668e-06-1.66667 55.8002-1.66648 55.8002 1.66685-5.45668e-06 1.66667ZM54.1336-4.99982 64.1335 0.000209974 54.1335 5.00018Z" fill="#3F4444" transform="matrix(1 0 0 -1 817.5 251.5)"/><path d="M658.5 232.5C658.5 220.35 668.35 210.5 680.5 210.5L768.5 210.5C780.65 210.5 790.5 220.35 790.5 232.5L790.5 320.5C790.5 332.65 780.65 342.5 768.5 342.5L680.5 342.5C668.35 342.5 658.5 332.65 658.5 320.5Z" stroke="#003865" stroke-width="3.33333" stroke-miterlimit="8" fill="#FFFFFF" fill-rule="evenodd"/><text fill="#3F4444" font-family="Consolas,Consolas_MSFontService,sans-serif" font-weight="400" font-size="24" transform="translate(697.56 241)">Calc</text><path d="M761 242.333C761 239.94 762.94 238 765.333 238L812.667 238C815.06 238 817 239.94 817 242.333L817 259.667C817 262.06 815.06 264 812.667 264L765.333 264C762.94 264 761 262.06 761 259.667Z" fill="#D0006F" fill-rule="evenodd"/><path d="M630 268.167C630 265.866 631.866 264 634.167 264L681.833 264C684.134 264 686 265.866 686 268.167L686 284.833C686 287.134 684.134 289 681.833 289L634.167 289C631.866 289 630 287.134 630 284.833Z" fill="#C4D600" fill-rule="evenodd"/><path d="M761 293.333C761 290.94 762.94 289 765.333 289L812.667 289C815.06 289 817 290.94 817 293.333L817 310.667C817 313.06 815.06 315 812.667 315L765.333 315C762.94 315 761 313.06 761 310.667Z" fill="#D0006F" fill-rule="evenodd"/><path d="M155.5 111.334C155.5 99.2753 165.275 89.5001 177.334 89.5001L265.666 89.5001C277.725 89.5001 287.5 99.2753 287.5 111.334L287.5 198.666C287.5 210.725 277.725 220.5 265.666 220.5L177.334 220.5C165.275 220.5 155.5 210.725 155.5 198.666Z" stroke="#003865" stroke-width="3.33333" stroke-miterlimit="8" fill="#FFFFFF" fill-rule="evenodd"/><text fill="#3F4444" font-family="Consolas,Consolas_MSFontService,sans-serif" font-weight="400" font-size="24" transform="translate(175.239 120)">Initial</text><path d="M130 148.167C130 145.866 131.866 144 134.167 144L180.833 144C183.134 144 185 145.866 185 148.167L185 164.833C185 167.134 183.134 169 180.833 169L134.167 169C131.866 169 130 167.134 130 164.833Z" fill="#F0AB00" fill-rule="evenodd"/><path d="M259 148.167C259 145.866 260.866 144 263.167 144L310.833 144C313.134 144 315 145.866 315 148.167L315 164.833C315 167.134 313.134 169 310.833 169L263.167 169C260.866 169 259 167.134 259 164.833Z" fill="#D0006F" fill-rule="evenodd"/><path d="M407.5 204.334C407.5 192.275 417.275 182.5 429.334 182.5L516.666 182.5C528.725 182.5 538.5 192.275 538.5 204.334L538.5 292.666C538.5 304.725 528.725 314.5 516.666 314.5L429.334 314.5C417.275 314.5 407.5 304.725 407.5 292.666Z" stroke="#003865" stroke-width="3.33333" stroke-miterlimit="8" fill="#FFFFFF" fill-rule="evenodd"/><text fill="#3F4444" font-family="Consolas,Consolas_MSFontService,sans-serif" font-weight="400" font-size="24" transform="translate(439.572 214)">Merg<tspan font-size="24" x="52.6667" y="0">e</tspan></text><path d="M379 267.333C379 264.94 380.94 263 383.333 263L429.667 263C432.06 263 434 264.94 434 267.333L434 284.667C434 287.06 432.06 289 429.667 289L383.333 289C380.94 289 379 287.06 379 284.667Z" fill="#C4D600" fill-rule="evenodd"/><path d="M511 267.333C511 264.94 512.94 263 515.333 263L561.667 263C564.06 263 566 264.94 566 267.333L566 284.667C566 287.06 564.06 289 561.667 289L515.333 289C512.94 289 511 287.06 511 284.667Z" fill="#D0006F" fill-rule="evenodd"/><path d="M379 214.333C379 211.94 380.94 210 383.333 210L429.667 210C432.06 210 434 211.94 434 214.333L434 231.667C434 234.06 432.06 236 429.667 236L383.333 236C380.94 236 379 234.06 379 231.667Z" fill="#C4D600" fill-rule="evenodd"/><path d="M909.5 207.334C909.5 195.275 919.275 185.5 931.334 185.5L1019.67 185.5C1031.72 185.5 1041.5 195.275 1041.5 207.334L1041.5 294.666C1041.5 306.725 1031.72 316.5 1019.67 316.5L931.334 316.5C919.275 316.5 909.5 306.725 909.5 294.666Z" stroke="#003865" stroke-width="3.33333" stroke-miterlimit="8" fill="#FFFFFF" fill-rule="evenodd"/><text fill="#3F4444" font-family="Consolas,Consolas_MSFontService,sans-serif" font-weight="400" font-size="24" transform="translate(955.548 216)">Out</text><path d="M881 242.333C881 239.94 882.94 238 885.333 238L932.667 238C935.06 238 937 239.94 937 242.333L937 259.667C937 262.06 935.06 264 932.667 264L885.333 264C882.94 264 881 262.06 881 259.667Z" fill="#C4D600" fill-rule="evenodd"/><path d="M818.176 300.7 849.458 300.7C850.378 300.7 851.125 301.446 851.125 302.367L851.125 403.025C851.125 403.945 850.378 404.692 849.458 404.692L343.217 404.692C342.297 404.692 341.551 403.945 341.551 403.025L341.551 276.5C341.551 275.58 342.297 274.833 343.217 274.833L371.167 274.833 371.167 278.167 343.217 278.167 344.884 276.5 344.884 403.025 343.217 401.358 849.458 401.358 847.791 403.025 847.791 302.367 849.458 304.033 818.176 304.033ZM369.5 271.5 379.5 276.5 369.5 281.5Z" fill="#3F4444"/></g></svg>