<svg width="791" height="390" xmlns="http://www.w3.org/2000/svg" xmlns:xlink="http://www.w3.org/1999/xlink" overflow="hidden"><defs><clipPath id="clip0"><rect x="161" y="87" width="791" height="390"/></clipPath></defs><g clip-path="url(#clip0)" transform="translate(-161 -87)"><path d="M265.049 385.382 267.811 380.859 272.39 376.984 277.168 373.581 282.439 370.392 288.142 367.476 294.324 364.808 307.37 360.587 314.305 359.032 321.445 357.874 328.653 357.166 335.82 356.912 342.882 356.662 342.674 356.676 349.674 355.989 349.462 356.016 356.337 354.891 356.152 354.927 362.902 353.427 362.599 353.51 375.349 349.385 375.042 349.501 380.917 346.938 380.732 347.026 386.232 344.213 386.025 344.329 391.087 341.266 390.879 341.404 395.441 338.154 395.222 338.324 399.284 334.886 398.998 335.16 402.373 331.535 402.14 331.813 404.89 328.126 404.631 328.532 406.693 324.72 406.453 325.283 407.703 321.408 407.562 322.063 408 318.125 414.625 318.862 414.151 323.134 412.703 327.622 410.379 331.917 407.376 335.944 403.742 339.848 399.422 343.503 394.645 346.906 389.374 350.095 383.676 353.008 377.557 355.677 364.502 359.901 357.506 361.455 350.432 362.613 343.222 363.321 336.055 363.575 328.993 363.825 329.201 363.811 322.201 364.498 322.409 364.471 315.471 365.596 315.667 365.559 308.98 367.059 309.276 366.977 296.526 371.102 296.821 370.991 290.883 373.554 291.08 373.461 285.58 376.274 285.788 376.158 280.725 379.221 280.934 379.083 276.371 382.333 276.591 382.163 272.528 385.601 273.22 384.793 270.739 388.856ZM278.335 388.569 260.5 402.056 260.411 379.695Z" fill="#D8DBDB"/><path d="M16.6984 4.39172 21.1466 7.02181 25.0346 11.4046 28.4525 16.0715 31.6469 21.2216 34.5645 26.7974 37.2359 32.7917 41.4624 45.4712 43.0205 52.2232 44.1804 59.1182 44.8897 66.1469 45.1436 73.1289 45.3936 80.0039 45.379 79.7903 46.0665 86.6028 46.0371 86.3845 47.1621 93.072 47.123 92.8755 48.623 99.3755 48.5373 99.0709 52.6623 111.446 52.5447 111.143 55.1072 116.893 55.0159 116.705 57.8284 122.08 57.7077 121.868 60.7702 126.806 60.6267 126.593 63.8767 131.03 63.6811 130.788 67.1186 134.663 66.8736 134.414 70.4986 137.727 70.2133 137.494 73.9008 140.181 73.486 139.923 77.2985 141.923 76.7267 141.688 80.6017 142.875 79.9931 142.75 83.9306 143.187 83.1944 149.813 78.9467 149.341 74.4765 147.971 70.1721 145.713 66.1376 142.773 62.2474 139.218 58.5904 135.095 55.1725 130.429 51.9781 125.278 49.0605 119.703 46.3891 113.708 42.1626 101.029 40.6045 94.2768 39.4446 87.3818 38.7353 80.3531 38.4814 73.3711 38.2314 66.4961 38.246 66.7097 37.5585 59.8972 37.5879 60.1155 36.4629 53.428 36.502 53.6245 35.002 47.1245 35.0877 47.4291 30.9627 35.0541 31.0803 35.3569 28.5178 29.6069 28.6091 29.7954 25.7966 24.4204 25.9173 24.632 22.8548 19.6945 22.9983 19.9071 19.7483 15.4696 19.9439 15.712 16.5064 11.837 17.3035 12.4943 13.3053 10.1303ZM13.6456 17.7143 0 0 22.3588-0.287876Z" fill="#D8DBDB" transform="matrix(-1.83697e-16 -1 -1 1.83697e-16 556.989 402.056)"/><path d="M414.927 229.355 417.591 224.903 421.975 221.014 426.706 217.598 431.847 214.409 437.422 211.491 443.419 208.819 456.168 204.591 463.042 203.034 469.932 201.875 477.023 201.166 484.004 200.912 490.879 200.662 490.668 200.677 497.543 199.989 497.322 200.019 504.01 198.894 503.826 198.93 510.451 197.43 510.138 197.517 522.576 193.392 522.268 193.511 528.018 190.949 527.83 191.04 533.205 188.228 532.993 188.348 537.931 185.286 537.736 185.416 542.236 182.166 541.975 182.375 545.85 178.937 545.623 179.16 548.998 175.535 548.744 175.843 551.431 172.155 551.173 172.57 553.173 168.758 552.938 169.329 554.125 165.454 554 166.063 554.437 162.125 561.063 162.862 560.591 167.109 559.221 171.58 556.963 175.884 554.013 179.931 550.394 183.819 546.275 187.473 541.544 190.889 536.403 194.078 530.828 196.996 524.831 199.668 512.082 203.896 505.208 205.453 498.318 206.612 491.227 207.321 484.246 207.575 477.371 207.825 477.582 207.81 470.707 208.498 470.928 208.468 464.24 209.593 464.424 209.557 457.799 211.057 458.112 210.97 445.674 215.095 445.982 214.976 440.232 217.538 440.42 217.447 435.045 220.259 435.257 220.139 430.319 223.201 430.514 223.071 426.014 226.321 426.275 226.112 422.4 229.55 423.048 228.768 420.647 232.779ZM428.238 232.441 410.5 246.056 410.251 223.697Z" fill="#D8DBDB"/><path d="M17.0867-0.799768 21.8574 0.0811372 27.3929 2.01521 32.7622 4.30699 43.1213 9.90478 53.1546 16.8509 62.7096 24.9309 71.731 34.1443 80.1515 44.3509 87.93 55.3811 94.8763 67.2345 100.986 79.7085 106.206 92.7589 110.412 106.268 113.47 120.094 115.448 134.129 116.08 148.162 116.078 148.133 116.828 162.008 116.794 161.678 118.919 175.428 118.86 175.133 122.235 188.695 122.147 188.401 126.772 201.651 126.666 201.385 132.416 214.198 132.288 213.942 139.101 226.192 138.963 225.967 146.651 237.529 146.501 237.322 155.001 248.197 154.807 247.971 164.12 257.908 163.925 257.717 173.863 266.717 173.635 266.528 184.135 274.466 183.864 274.281 194.801 280.969 194.507 280.808 205.819 286.246 205.549 286.13 211.362 288.318 211.18 288.255 216.992 290.068 216.792 290.012 222.667 291.45 222.429 291.4 228.366 292.4 228.196 292.376 234.133 293.064 233.855 293.043 239.793 293.231 239.582 299.894 233.505 299.702 227.344 298.989 221.201 297.954 215.107 296.463 209.103 294.591 203.063 292.318 191.467 286.744 180.246 279.883 169.497 271.757 159.349 262.566 149.841 252.42 141.17 241.327 133.339 229.548 126.392 217.058 120.525 203.984 115.802 190.454 112.354 176.596 110.18 162.533 109.421 148.477 108.795 134.587 108.824 134.903 106.887 121.153 106.933 121.407 103.933 107.845 104.005 108.116 99.8798 94.8658 99.9676 95.113 94.8426 82.3005 94.944 82.5287 88.944 70.2787 89.0616 70.4978 82.2491 58.8728 82.4009 59.1085 74.7759 48.296 74.9287 48.4963 66.6787 38.4963 66.8683 38.7071 58.0558 29.7071 58.2851 29.9203 48.9726 22.0453 49.2276 22.2406 39.4776 15.4906 39.7903 15.6826 29.7278 10.2451 30.004 10.3782 24.879 8.19075 25.088 8.27178 19.9005 6.45928 20.3947 6.59042 15.8761 5.75608ZM18.2908 12.8626 0 0 21.2646-6.91505Z" fill="#D8DBDB" transform="matrix(-1.83697e-16 -1 -1 1.83697e-16 855.033 402.145)"/><path d="M462.5 102.5C462.5 95.8727 467.873 90.5001 474.5 90.5001L642.5 90.5001C649.127 90.5001 654.5 95.8727 654.5 102.5L654.5 150.5C654.5 157.127 649.127 162.5 642.5 162.5L474.5 162.5C467.873 162.5 462.5 157.127 462.5 150.5Z" stroke="#003865" stroke-width="3.33333" stroke-miterlimit="8" fill="#FFFFFF" fill-rule="evenodd"/><text fill="#3F4444" font-family="Univers,Univers_MSFontService,sans-serif" font-weight="400" font-stretch="condensed" font-size="24" transform="translate(510.844 133)">Workflow</text><path d="M314.5 258.5C314.5 251.873 319.873 246.5 326.5 246.5L494.5 246.5C501.127 246.5 506.5 251.873 506.5 258.5L506.5 306.5C506.5 313.127 501.127 318.5 494.5 318.5L326.5 318.5C319.873 318.5 314.5 313.127 314.5 306.5Z" stroke="#830051" stroke-width="3.33333" stroke-miterlimit="8" fill="#FFFFFF" fill-rule="evenodd"/><text fill="#3F4444" font-family="Univers,Univers_MSFontService,sans-serif" font-weight="400" font-stretch="condensed" font-size="24" transform="translate(363.644 289)">Subgraph</text><path d="M164.5 414.5C164.5 407.873 169.873 402.5 176.5 402.5L344.5 402.5C351.127 402.5 356.5 407.873 356.5 414.5L356.5 462.5C356.5 469.127 351.127 474.5 344.5 474.5L176.5 474.5C169.873 474.5 164.5 469.127 164.5 462.5Z" stroke="#F0AB00" stroke-width="3.33333" stroke-miterlimit="8" fill="#FFFFFF" fill-rule="evenodd"/><text fill="#3F4444" font-family="Univers,Univers_MSFontService,sans-serif" font-weight="400" font-stretch="condensed" font-size="24" transform="translate(225.556 445)">Node 1</text><path d="M461.5 414.5C461.5 407.873 466.873 402.5 473.5 402.5L641.5 402.5C648.127 402.5 653.5 407.873 653.5 414.5L653.5 462.5C653.5 469.127 648.127 474.5 641.5 474.5L473.5 474.5C466.873 474.5 461.5 469.127 461.5 462.5Z" stroke="#F0AB00" stroke-width="3.33333" stroke-miterlimit="8" fill="#FFFFFF" fill-rule="evenodd"/><text fill="#3F4444" font-family="Univers,Univers_MSFontService,sans-serif" font-weight="400" font-stretch="condensed" font-size="24" transform="translate(522.8 445)">Node 2</text><path d="M758.5 414.5C758.5 407.873 763.873 402.5 770.5 402.5L938.5 402.5C945.127 402.5 950.5 407.873 950.5 414.5L950.5 462.5C950.5 469.127 945.127 474.5 938.5 474.5L770.5 474.5C763.873 474.5 758.5 469.127 758.5 462.5Z" stroke="#F0AB00" stroke-width="3.33333" stroke-miterlimit="8" fill="#FFFFFF" fill-rule="evenodd"/><text fill="#3F4444" font-family="Univers,Univers_MSFontService,sans-serif" font-weight="400" font-stretch="condensed" font-size="24" transform="translate(820.044 445)">Node 3<tspan font-size="24" x="-156.933" y="-175">Parent </tspan><tspan font-size="24" x="-87.6" y="-175">-</tspan><tspan font-size="24" x="-74.2667" y="-175">Child</tspan></text></g></svg>