<svg width="3428" height="1040" xmlns="http://www.w3.org/2000/svg" xmlns:xlink="http://www.w3.org/1999/xlink" xml:space="preserve" overflow="hidden"><defs><clipPath id="clip0"><rect x="610" y="156" width="3428" height="1040"/></clipPath></defs><g clip-path="url(#clip0)" transform="translate(-610 -156)"><path d="M2101.5 352.835C2101.5 311.229 2135.23 277.5 2176.83 277.5L2480.16 277.5C2521.77 277.5 2555.5 311.229 2555.5 352.835L2555.5 654.165C2555.5 695.771 2521.77 729.5 2480.16 729.5L2176.83 729.5C2135.23 729.5 2101.5 695.771 2101.5 654.165Z" stroke="#003865" stroke-width="11.4583" stroke-miterlimit="8" fill="#FFFFFF" fill-rule="evenodd"/><text fill="#3F4444" font-family="Consolas,Consolas_MSFontService,sans-serif" font-weight="400" font-size="367" transform="matrix(1 0 0 1 2227.09 617)">I</text><path d="M0 13.6669C0 6.1189 6.1189-5.60179e-15 13.667-5.60179e-15L68.3332 0C75.8813-2.80089e-15 82.0002 6.1189 82.0002 13.6669L82.0002 74.3331C82.0002 81.8811 75.8813 88 68.3332 88L13.667 88C6.1189 88 0 81.8811 0 74.3331Z" fill="#D0006F" fill-rule="evenodd" transform="matrix(-1 0 0 1 2596 459)"/><path d="M2059 475.167C2059 467.343 2065.34 461 2073.17 461L2129.83 461C2137.66 461 2144 467.343 2144 475.167L2144 534.833C2144 542.657 2137.66 549 2129.83 549L2073.17 549C2065.34 549 2059 542.657 2059 534.833Z" fill="#C4D600" fill-rule="evenodd"/><path d="M704.5 347.835C704.5 306.229 738.228 272.5 779.835 272.5L1083.16 272.5C1124.77 272.5 1158.5 306.229 1158.5 347.835L1158.5 649.165C1158.5 690.771 1124.77 724.5 1083.16 724.5L779.835 724.5C738.228 724.5 704.5 690.771 704.5 649.165Z" stroke="#003865" stroke-width="11.4583" stroke-miterlimit="8" fill="#FFFFFF" fill-rule="evenodd"/><text fill="#3F4444" font-family="Consolas,Consolas_MSFontService,sans-serif" font-weight="400" font-size="367" transform="matrix(1 0 0 1 830.036 613)">M</text><path d="M1114 475.5C1114 467.492 1120.49 461 1128.5 461L1186.5 461C1194.51 461 1201 467.492 1201 475.5L1201 534.5C1201 542.508 1194.51 549 1186.5 549L1128.5 549C1120.49 549 1114 542.508 1114 534.5Z" fill="#D0006F" fill-rule="evenodd"/><path d="M1418.5 616.835C1418.5 575.229 1452.23 541.5 1493.84 541.5L1796.16 541.5C1837.77 541.5 1871.5 575.229 1871.5 616.835L1871.5 918.165C1871.5 959.771 1837.77 993.5 1796.16 993.5L1493.84 993.5C1452.23 993.5 1418.5 959.771 1418.5 918.165Z" stroke="#003865" stroke-width="11.4583" stroke-miterlimit="8" fill="#FFFFFF" fill-rule="evenodd"/><text fill="#3F4444" font-family="Consolas,Consolas_MSFontService,sans-serif" font-weight="400" font-size="367" transform="matrix(1 0 0 1 1543.76 881)">A</text><path d="M1375 833.334C1375 825.418 1381.42 819 1389.33 819L1446.67 819C1454.58 819 1461 825.418 1461 833.334L1461 893.666C1461 901.583 1454.58 908 1446.67 908L1389.33 908C1381.42 908 1375 901.583 1375 893.666Z" fill="#C4D600" fill-rule="evenodd"/><path d="M1378 649.333C1378 641.97 1383.97 636 1391.33 636L1444.67 636C1452.03 636 1458 641.97 1458 649.333L1458 710.666C1458 718.03 1452.03 724 1444.67 724L1391.33 724C1383.97 724 1378 718.03 1378 710.666Z" fill="#C4D600" fill-rule="evenodd"/><path d="M1829 647.167C1829 639.343 1835.34 633 1843.17 633L1899.83 633C1907.66 633 1914 639.343 1914 647.167L1914 707.833C1914 715.657 1907.66 722 1899.83 722L1843.17 722C1835.34 722 1829 715.657 1829 707.833Z" fill="#D0006F" fill-rule="evenodd"/><path d="M0 5.72917-82.5065 5.72917-76.7773 0-76.7773 302.809-82.5065 297.079 1979.21 297.079 1973.48 302.809 1973.48 15.5866 1979.21 21.3157 1925.35 21.3157 1925.35 9.85741 1979.21 9.85741C1982.37 9.85741 1984.94 12.4225 1984.94 15.5866L1984.94 302.809C1984.94 305.973 1982.37 308.538 1979.21 308.538L-82.5065 308.538C-85.6706 308.538-88.2357 305.973-88.2357 302.809L-88.2357 0C-88.2357-3.16413-85.6706-5.72917-82.5065-5.72917L0-5.72917ZM1931.08 32.7741 1896.7 15.5866 1931.08-1.60092Z" fill="#3F4444" transform="matrix(-1 0 0 1 3272.2 848.5)"/><path d="M3490.5 354.835C3490.5 313.229 3524.23 279.5 3565.83 279.5L3868.17 279.5C3909.77 279.5 3943.5 313.229 3943.5 354.835L3943.5 656.165C3943.5 697.772 3909.77 731.501 3868.17 731.501L3565.83 731.501C3524.23 731.501 3490.5 697.772 3490.5 656.165Z" stroke="#003865" stroke-width="11.4583" stroke-miterlimit="8" fill="#FFFFFF" fill-rule="evenodd"/><text fill="#3F4444" font-family="Consolas,Consolas_MSFontService,sans-serif" font-weight="400" font-size="367" transform="matrix(1 0 0 1 3615.79 620)">E</text><path d="M0 12.0002C-2.83272e-15 5.37268 5.37268-2.83272e-15 12.0002-2.83272e-15L59.9996 0C66.6272-1.41636e-15 71.9998 5.37268 71.9998 12.0002L71.9998 76.9998C71.9998 83.6274 66.6272 89 59.9996 89L12.0002 89C5.37268 89-1.41636e-15 83.6274-1.41636e-15 76.9998Z" fill="#C4D600" fill-rule="evenodd" transform="matrix(-1 0 0 1 3526 461)"/><path d="M2777.5 616.835C2777.5 575.229 2811.23 541.5 2852.83 541.5L3156.17 541.5C3197.77 541.5 3231.5 575.229 3231.5 616.835L3231.5 918.165C3231.5 959.771 3197.77 993.5 3156.17 993.5L2852.83 993.5C2811.23 993.5 2777.5 959.771 2777.5 918.165Z" stroke="#003865" stroke-width="11.4583" stroke-miterlimit="8" fill="#FFFFFF" fill-rule="evenodd"/><text fill="#3F4444" font-family="Consolas,Consolas_MSFontService,sans-serif" font-weight="400" font-size="367" transform="matrix(1 0 0 1 2903.24 881)">Z</text><path d="M2738 735.167C2738 727.895 2743.9 722 2751.17 722L2803.83 722C2811.1 722 2817 727.895 2817 735.167L2817 797.833C2817 805.105 2811.1 811 2803.83 811L2751.17 811C2743.9 811 2738 805.105 2738 797.833Z" fill="#C4D600" fill-rule="evenodd"/><path d="M0 13.6669C0 6.1189 6.1189-5.60179e-15 13.667-5.60179e-15L68.3332 0C75.8813-2.80089e-15 82.0002 6.1189 82.0002 13.6669L82.0002 74.3331C82.0002 81.8811 75.8813 88 68.3332 88L13.667 88C6.1189 88 0 81.8811 0 74.3331Z" fill="#D0006F" fill-rule="evenodd" transform="matrix(-1 0 0 1 3272 643)"/><path d="M0 13.6669C0 6.1189 6.1189-5.60179e-15 13.667-5.60179e-15L68.3332 0C75.8813-2.80089e-15 82.0002 6.1189 82.0002 13.6669L82.0002 74.3331C82.0002 81.8811 75.8813 88 68.3332 88L13.667 88C6.1189 88 0 81.8811 0 74.3331Z" fill="#D0006F" fill-rule="evenodd" transform="matrix(-1 0 0 1 3272 804)"/><path d="M1201.5 499.771 1289.91 499.771C1293.07 499.771 1295.64 502.336 1295.64 505.5L1295.64 680.534 1289.91 674.805 1349.67 674.805 1349.67 686.263 1289.91 686.263C1286.74 686.263 1284.18 683.698 1284.18 680.534L1284.18 505.5 1289.91 511.229 1201.5 511.229ZM1343.94 663.347 1378.31 680.534 1343.94 697.722Z" fill="#3F4444"/><path d="M0-5.72917 72.2545-5.72917C75.4187-5.72917 77.9837-3.16413 77.9837 0L77.9837 172.741 72.2545 167.012 115.863 167.012 115.863 178.47 72.2545 178.47C69.0904 178.47 66.5254 175.905 66.5254 172.741L66.5254 0 72.2545 5.72917 0 5.72917ZM110.134 155.553 144.509 172.741 110.134 189.928Z" fill="#3F4444" transform="matrix(1 0 0 -1 1914.5 678.241)"/><path d="M2596.5 497.771 2667.55 497.771C2670.72 497.771 2673.28 500.336 2673.28 503.5L2673.28 767.146 2667.55 761.417 2709.96 761.417 2709.96 772.875 2667.55 772.875C2664.39 772.875 2661.83 770.31 2661.83 767.146L2661.83 503.5 2667.55 509.229 2596.5 509.229ZM2704.23 749.958 2738.61 767.146 2704.23 784.333Z" fill="#3F4444"/><path d="M0-5.72917 90.8092-5.72917C93.9733-5.72917 96.5384-3.16413 96.5384 0L96.5384 181.806 90.8092 176.077 152.973 176.077 152.973 187.535 90.8092 187.535C87.6451 187.535 85.08 184.97 85.08 181.806L85.08 0 90.8092 5.72917 0 5.72917ZM147.243 164.619 181.618 181.806 147.243 198.994Z" fill="#3F4444" transform="matrix(1 0 0 -1 3272.5 687.306)"/></g></svg>