<svg width="1187" height="394" xmlns="http://www.w3.org/2000/svg" xmlns:xlink="http://www.w3.org/1999/xlink" overflow="hidden"><defs><clipPath id="clip0"><rect x="44" y="82" width="1187" height="394"/></clipPath></defs><g clip-path="url(#clip0)" transform="translate(-44 -82)"><path d="M951 337 993.934 337 993.934 345 951 345ZM989.934 329 1013.93 341 989.934 353Z" fill="#B0B6B6"/><path d="M261 337 303.933 337 303.933 345 261 345ZM299.933 329 323.933 341 299.933 353Z" fill="#B0B6B6"/><path d="M420.5 149.501C420.5 113.602 449.602 84.5001 485.501 84.5001L790.499 84.5001C826.398 84.5001 855.5 113.602 855.5 149.501L855.5 409.499C855.5 445.398 826.398 474.5 790.499 474.5L485.501 474.5C449.602 474.5 420.5 445.398 420.5 409.499Z" stroke="#003865" stroke-width="3.33333" stroke-miterlimit="8" fill="#FFFFFF" fill-rule="evenodd"/><text fill="#3F4444" font-family="Consolas,Consolas_MSFontService,sans-serif" font-weight="400" font-size="24" transform="translate(610.822 128)">Node</text><path d="M324.5 317.5C324.5 310.873 329.873 305.5 336.5 305.5L504.5 305.5C511.127 305.5 516.5 310.873 516.5 317.5L516.5 365.5C516.5 372.127 511.127 377.5 504.5 377.5L336.5 377.5C329.873 377.5 324.5 372.127 324.5 365.5Z" stroke="#C4D600" stroke-width="3.33333" stroke-miterlimit="8" fill="#FFFFFF" fill-rule="evenodd"/><text fill="#3F4444" font-family="Consolas,Consolas_MSFontService,sans-serif" font-weight="400" font-size="24" transform="translate(366.889 348)">Input[T]</text><path d="M759.5 317.5C759.5 310.873 764.873 305.5 771.5 305.5L939.5 305.5C946.127 305.5 951.5 310.873 951.5 317.5L951.5 365.5C951.5 372.127 946.127 377.5 939.5 377.5L771.5 377.5C764.873 377.5 759.5 372.127 759.5 365.5Z" stroke="#D0006F" stroke-width="3.33333" stroke-miterlimit="8" fill="#FFFFFF" fill-rule="evenodd"/><text fill="#3F4444" font-family="Consolas,Consolas_MSFontService,sans-serif" font-weight="400" font-size="24" transform="translate(795.505 348)">Output[T]</text><path d="M324.5 184.5C324.5 177.873 329.873 172.5 336.5 172.5L504.5 172.5C511.127 172.5 516.5 177.873 516.5 184.5L516.5 232.5C516.5 239.127 511.127 244.5 504.5 244.5L336.5 244.5C329.873 244.5 324.5 239.127 324.5 232.5Z" stroke="#F0AB00" stroke-width="3.33333" stroke-miterlimit="8" fill="#FFFFFF" fill-rule="evenodd"/><text fill="#3F4444" font-family="Consolas,Consolas_MSFontService,sans-serif" font-weight="400" font-size="24" transform="translate(340.555 215)">Parameter[T]<tspan font-size="24" x="697.311" y="133">Channel[T]</tspan></text><path d="M1207.15 377.5C1195.35 377.5 1185.79 361.382 1185.79 341.5 1185.79 321.618 1195.35 305.5 1207.15 305.5 1218.94 305.5 1228.5 321.618 1228.5 341.5 1228.5 361.382 1218.94 377.5 1207.15 377.5L1035.85 377.5C1024.06 377.5 1014.5 361.382 1014.5 341.5 1014.5 321.618 1024.06 305.5 1035.85 305.5L1207.15 305.5" stroke="#68D2DF" stroke-width="3.33333" stroke-miterlimit="8" fill="none" fill-rule="evenodd"/><text fill="#3F4444" font-family="Consolas,Consolas_MSFontService,sans-serif" font-weight="400" font-size="24" transform="translate(70.3999 348)">Channel[T]</text><path d="M240.147 377.5C228.354 377.5 218.794 361.382 218.794 341.5 218.794 321.618 228.354 305.5 240.147 305.5 251.94 305.5 261.5 321.618 261.5 341.5 261.5 361.382 251.94 377.5 240.147 377.5L67.8531 377.5C56.0601 377.5 46.5 361.382 46.5 341.5 46.5 321.618 56.0601 305.5 67.8531 305.5L240.147 305.5" stroke="#68D2DF" stroke-width="3.33333" stroke-miterlimit="8" fill="none" fill-rule="evenodd"/><rect x="551" y="195" width="53" height="12" fill="#FAFFC4"/><rect x="619" y="195" width="30" height="12" fill="#D8DBDB"/><rect x="665" y="195" width="52" height="12" fill="#D8DBDB"/><rect x="551" y="219" width="40" height="12" fill="#D8DBDB"/><rect x="604" y="219" width="68" height="12" fill="#D8DBDB"/><rect x="687" y="219" width="53" height="12" fill="#D8DBDB"/><rect x="551" y="243" width="53" height="12" fill="#D8DBDB"/><rect x="620" y="243" width="30" height="12" fill="#D8DBDB"/><rect x="665" y="243" width="53" height="12" fill="#D8DBDB"/><rect x="551" y="267" width="98" height="12" fill="#EFDDF8"/><rect x="665" y="267" width="30" height="12" fill="#D8DBDB"/><rect x="550" y="291" width="53" height="12" fill="#D8DBDB"/><rect x="619" y="291" width="98" height="12" fill="#D8DBDB"/><rect x="550" y="314" width="85" height="13" fill="#E1F6F9"/><rect x="551" y="338" width="52" height="12" fill="#D8DBDB"/><rect x="650" y="314" width="84" height="13" fill="#D8DBDB"/><rect x="619" y="338" width="81" height="12" fill="#D8DBDB"/></g></svg>