<svg width="1114" height="515" xmlns="http://www.w3.org/2000/svg" xmlns:xlink="http://www.w3.org/1999/xlink" overflow="hidden"><defs><clipPath id="clip0"><rect x="126" y="91" width="1114" height="515"/></clipPath></defs><g clip-path="url(#clip0)" transform="translate(-126 -91)"><path d="M262.5 178.669C262.5 131.631 300.631 93.5001 347.669 93.5001L1152.33 93.5001C1199.37 93.5001 1237.5 131.631 1237.5 178.669L1237.5 519.331C1237.5 566.369 1199.37 604.5 1152.33 604.5L347.669 604.5C300.631 604.5 262.5 566.369 262.5 519.331Z" stroke="#003865" stroke-width="3.33333" stroke-miterlimit="8" fill="#FFFFFF" fill-rule="evenodd"/><text fill="#3F4444" font-family="Consolas,Consolas_MSFontService,sans-serif" font-weight="400" font-size="24" transform="translate(696.844 143)">Workflow</text><path d="M0 0C13.4 0 26.8001 8.88875 26.8001 17.7775 26.8001 26.6662 40.2001 35.555 53.6001 35.555" stroke="#899292" stroke-width="3.33333" stroke-miterlimit="8" stroke-dasharray="10 3.33333" fill="none" fill-rule="evenodd" transform="matrix(1 0 0 -1 391.5 343.055)"/><path d="M391.5 343.5C404.9 343.5 418.3 375.345 418.3 407.189 418.3 439.034 431.7 470.879 445.1 470.879" stroke="#899292" stroke-width="3.33333" stroke-miterlimit="8" stroke-dasharray="10 3.33333" fill="none" fill-rule="evenodd"/><path d="M630.638 352.839 634.526 353.163 638.452 354.161 642.287 355.682 645.969 357.786 649.546 360.387 652.98 363.433 656.14 366.851 659.181 370.669 664.361 379.174 668.384 388.624 669.867 393.655 670.958 398.851 671.599 404.045 671.852 409.231 672.102 414.356 672.092 414.236 672.717 419.361 672.693 419.216 673.755 424.216 673.724 424.091 675.161 428.966 675.096 428.785 679.034 438.035 678.924 437.821 683.986 446.133 683.877 445.975 686.752 449.663 686.65 449.544 689.775 452.856 689.68 452.764 692.93 455.701 692.793 455.59 696.23 458.09 696.066 457.984 699.628 459.984 699.29 459.841 702.16 460.7 701.204 463.893 698.158 462.981 694.349 460.843 690.761 458.233 687.396 455.192 684.171 451.774 681.189 447.949 676.014 439.451 671.991 430.002 670.508 424.972 669.417 419.837 668.776 414.579 668.523 409.394 668.273 404.269 668.283 404.392 667.658 399.329 667.681 399.467 666.619 394.405 666.651 394.534 665.214 389.659 665.279 389.84 661.342 380.59 661.452 380.804 656.389 372.492 656.509 372.664 653.571 368.976 653.651 369.069 650.589 365.757 650.707 365.872 647.394 362.935 647.52 363.035 644.082 360.535 644.236 360.635 640.736 358.635 640.948 358.737 637.323 357.299 637.527 357.365 633.839 356.428 634.112 356.473 630.362 356.161ZM701.153 457.053 709.813 464.125 698.959 466.809Z" fill="#3F4444"/><path d="M630.5 515.833 701.456 515.833 701.456 519.167 630.5 519.167ZM699.789 512.5 709.789 517.5 699.789 522.5Z" fill="#3F4444"/><path d="M897.5 515.833 951.411 515.833 951.411 519.167 897.5 519.167ZM949.745 512.5 959.745 517.5 949.745 522.5Z" fill="#3F4444"/><path d="M128.5 319.5C128.5 312.873 133.873 307.5 140.5 307.5L379.5 307.5C386.127 307.5 391.5 312.873 391.5 319.5L391.5 367.5C391.5 374.127 386.127 379.5 379.5 379.5L140.5 379.5C133.873 379.5 128.5 374.127 128.5 367.5Z" stroke="#F0AB00" stroke-width="3.33333" stroke-miterlimit="8" fill="#FFFFFF" fill-rule="evenodd"/><text fill="#3F4444" font-family="Consolas,Consolas_MSFontService,sans-serif" font-weight="400" font-size="24" transform="translate(147.772 350)">MultiParameter<tspan font-size="24" x="184.333" y="0">[T]</tspan></text><path d="M470.5 445.5C470.5 433.35 480.35 423.5 492.5 423.5L580.5 423.5C592.65 423.5 602.5 433.35 602.5 445.5L602.5 533.5C602.5 545.65 592.65 555.5 580.5 555.5L492.5 555.5C480.35 555.5 470.5 545.65 470.5 533.5Z" stroke="#003865" stroke-width="3.33333" stroke-miterlimit="8" fill="#FFFFFF" fill-rule="evenodd"/><text fill="#3F4444" font-family="Consolas,Consolas_MSFontService,sans-serif" font-weight="400" font-size="24" transform="translate(529.728 454)">B</text><path d="M442 508.333C442 505.94 443.94 504 446.333 504L493.667 504C496.06 504 498 505.94 498 508.333L498 525.667C498 528.06 496.06 530 493.667 530L446.333 530C443.94 530 442 528.06 442 525.667Z" fill="#F0AB00" fill-rule="evenodd"/><path d="M445 461.333C445 458.94 446.94 457 449.333 457L495.667 457C498.06 457 500 458.94 500 461.333L500 478.667C500 481.06 498.06 483 495.667 483L449.333 483C446.94 483 445 481.06 445 478.667Z" fill="#F0AB00" fill-rule="evenodd"/><path d="M574 508.333C574 505.94 575.94 504 578.333 504L625.667 504C628.06 504 630 505.94 630 508.333L630 525.667C630 528.06 628.06 530 625.667 530L578.333 530C575.94 530 574 528.06 574 525.667Z" fill="#D0006F" fill-rule="evenodd"/><path d="M470.5 282.5C470.5 270.35 480.35 260.5 492.5 260.5L580.5 260.5C592.65 260.5 602.5 270.35 602.5 282.5L602.5 370.5C602.5 382.65 592.65 392.5 580.5 392.5L492.5 392.5C480.35 392.5 470.5 382.65 470.5 370.5Z" stroke="#003865" stroke-width="3.33333" stroke-miterlimit="8" fill="#FFFFFF" fill-rule="evenodd"/><text fill="#3F4444" font-family="Consolas,Consolas_MSFontService,sans-serif" font-weight="400" font-size="24" transform="translate(529.728 291)">A</text><path d="M445 298.333C445 295.94 446.94 294 449.333 294L495.667 294C498.06 294 500 295.94 500 298.333L500 315.667C500 318.06 498.06 320 495.667 320L449.333 320C446.94 320 445 318.06 445 315.667Z" fill="#F0AB00" fill-rule="evenodd"/><path d="M574 345.333C574 342.94 575.94 341 578.333 341L625.667 341C628.06 341 630 342.94 630 345.333L630 362.667C630 365.06 628.06 367 625.667 367L578.333 367C575.94 367 574 365.06 574 362.667Z" fill="#D0006F" fill-rule="evenodd"/><path d="M737.5 445.5C737.5 433.35 747.35 423.5 759.5 423.5L847.5 423.5C859.65 423.5 869.5 433.35 869.5 445.5L869.5 533.5C869.5 545.65 859.65 555.5 847.5 555.5L759.5 555.5C747.35 555.5 737.5 545.65 737.5 533.5Z" stroke="#003865" stroke-width="3.33333" stroke-miterlimit="8" fill="#FFFFFF" fill-rule="evenodd"/><text fill="#3F4444" font-family="Consolas,Consolas_MSFontService,sans-serif" font-weight="400" font-size="24" transform="translate(796.75 454)">C</text><path d="M709 508.333C709 505.94 710.94 504 713.333 504L760.667 504C763.06 504 765 505.94 765 508.333L765 525.667C765 528.06 763.06 530 760.667 530L713.333 530C710.94 530 709 528.06 709 525.667Z" fill="#C4D600" fill-rule="evenodd"/><path d="M841 508.333C841 505.94 842.94 504 845.333 504L892.667 504C895.06 504 897 505.94 897 508.333L897 525.667C897 528.06 895.06 530 892.667 530L845.333 530C842.94 530 841 528.06 841 525.667Z" fill="#D0006F" fill-rule="evenodd"/><path d="M709 455.333C709 452.94 710.94 451 713.333 451L760.667 451C763.06 451 765 452.94 765 455.333L765 472.667C765 475.06 763.06 477 760.667 477L713.333 477C710.94 477 709 475.06 709 472.667Z" fill="#C4D600" fill-rule="evenodd"/><path d="M128.5 433.667C128.5 426.947 133.947 421.5 140.667 421.5L379.333 421.5C386.053 421.5 391.5 426.947 391.5 433.667L391.5 482.333C391.5 489.053 386.053 494.5 379.333 494.5L140.667 494.5C133.947 494.5 128.5 489.053 128.5 482.333Z" stroke="#F0AB00" stroke-width="3.33333" stroke-miterlimit="8" fill="#FFFFFF" fill-rule="evenodd"/><text fill="#3F4444" font-family="Consolas,Consolas_MSFontService,sans-serif" font-weight="400" font-size="24" transform="translate(147.772 464)">MultiParameter<tspan font-size="24" x="184.333" y="0">[T]</tspan></text><path d="M391.5 457.5C404.367 457.5 417.234 472.411 417.234 487.322 417.234 502.233 430.1 517.145 442.967 517.145" stroke="#899292" stroke-width="3.33333" stroke-miterlimit="8" stroke-dasharray="10 3.33333" fill="none" fill-rule="evenodd"/><path d="M987.5 445.5C987.5 433.35 997.35 423.5 1009.5 423.5L1097.5 423.5C1109.65 423.5 1119.5 433.35 1119.5 445.5L1119.5 533.5C1119.5 545.65 1109.65 555.5 1097.5 555.5L1009.5 555.5C997.35 555.5 987.5 545.65 987.5 533.5Z" stroke="#003865" stroke-width="3.33333" stroke-miterlimit="8" fill="#FFFFFF" fill-rule="evenodd"/><text fill="#3F4444" font-family="Consolas,Consolas_MSFontService,sans-serif" font-weight="400" font-size="24" transform="translate(1046.73 454)">D</text><path d="M959 508.333C959 505.94 960.94 504 963.333 504L1010.67 504C1013.06 504 1015 505.94 1015 508.333L1015 525.667C1015 528.06 1013.06 530 1010.67 530L963.333 530C960.94 530 959 528.06 959 525.667Z" fill="#C4D600" fill-rule="evenodd"/><path d="M959 455.333C959 452.94 960.94 451 963.333 451L1010.67 451C1013.06 451 1015 452.94 1015 455.333L1015 472.667C1015 475.06 1013.06 477 1010.67 477L963.333 477C960.94 477 959 475.06 959 472.667Z" fill="#F0AB00" fill-rule="evenodd"/><path d="M128.5 204.667C128.5 197.947 133.947 192.5 140.667 192.5L379.333 192.5C386.053 192.5 391.5 197.947 391.5 204.667L391.5 253.333C391.5 260.053 386.053 265.5 379.333 265.5L140.667 265.5C133.947 265.5 128.5 260.053 128.5 253.333Z" stroke="#F0AB00" stroke-width="3.33333" stroke-miterlimit="8" fill="#FFFFFF" fill-rule="evenodd"/><text fill="#3F4444" font-family="Consolas,Consolas_MSFontService,sans-serif" font-weight="400" font-size="24" transform="translate(147.772 236)">MultiParameter[T]</text><path d="M391.5 230.5C541.735 232.16 686.282 223.151 781.778 258.95 877.274 294.749 867.055 462.307 959.5 464.5" stroke="#899292" stroke-width="3.33333" stroke-miterlimit="8" stroke-dasharray="10 3.33333" fill="none" fill-rule="evenodd"/></g></svg>